<?xml version="1.0" encoding="utf-8"?>
<!-- Generator: Adobe Illustrator 28.2.0, SVG Export Plug-In . SVG Version: 6.00 Build 0)  -->
<svg version="1.1" id="Calque_1" xmlns="http://www.w3.org/2000/svg" xmlns:xlink="http://www.w3.org/1999/xlink" x="0px" y="0px"
	 viewBox="0 0 300 100" style="enable-background:new 0 0 300 100;" xml:space="preserve">
<style type="text/css">
	.st0{fill:none;stroke:#050505;stroke-width:4;stroke-miterlimit:10;}
	.st1{fill:#050505;}
</style>
<g>
	<path class="st0" d="M128.5,26h-10c-0.3,0-0.5-0.2-0.5-0.5l0,0c0-0.3,0.2-0.5,0.5-0.5h10c0.3,0,0.5,0.2,0.5,0.5l0,0
		C129,25.8,128.8,26,128.5,26z"/>
	<path class="st1" d="M91,65.4c0.8,0.6,1.3,1.6,1.3,2.6v0.5c0,0-0.3,0.2-0.4,0.1c0,0-0.2-0.1-0.3-0.1c-0.2-0.1-0.5-0.2-0.5-0.2
		L75.5,57c-0.4-0.2-0.5-0.1-0.4-4c0-0.7,0.2-1.3,0.6-1.9l0.3-0.4l0.4-0.3v2c0,2.5,0.1,2.6,0.9,3.1L91,65.4z M78.1,54.4
		c-0.4-0.2-0.5-0.1-0.4-4c0-0.7,0.2-1.3,0.6-1.9v0c0.2-0.3,0.4-0.5,0.7-0.7l15.1-11c0.4-0.3,1-0.1,1,0.3L95.1,42
		c0,0.7-0.5,1.1-0.5,1.1l-8.1,5.6c-1.8,1.3-1.9,4-0.1,5.3l8,5.8c0.3,0.2,0.5,0.5,0.5,1v5.1c0,0-0.3,0.2-0.4,0.1c0,0-0.2-0.1-0.3-0.1
		c-0.2-0.1-0.5-0.2-0.5-0.2L78.1,54.4z"/>
	<path class="st0" d="M127.1,66.1"/>
	<path class="st0" d="M124.8,66.1"/>
	<path class="st0" d="M108.1,66.1"/>
	<line class="st0" x1="106.6" y1="66.1" x2="107.3" y2="66.1"/>
	<path class="st0" d="M104.8,65.8c0.3,0.1,0.5,0.2,0.9,0.2h1"/>
	<path class="st0" d="M99.8,26.3c-1.8-4.3,5.6,13.1,7.8,17.3c3.4,6.4,2.8,1.4,3.4-0.1c1.8-4.6,7.1-18.4,7.1-18.4l-14.2,38.5
		c-0.3,0.9,0.1,1.8,0.8,2.2"/>
	<path class="st1" d="M136.1,39.4c-0.8-0.6-1.3-1.6-1.3-2.6l0-0.5c0,0,0.3-0.2,0.4-0.1c0,0,0.2,0.1,0.3,0.1c0.2,0.1,0.5,0.2,0.5,0.2
		l15.7,11.2c0.4,0.2,0.5,0.1,0.4,4c0,0.7-0.2,1.3-0.6,1.9l-0.3,0.4l-0.4,0.3l0-2c0-2.5-0.1-2.6-0.9-3.1L136.1,39.4z M149.1,50.3
		c0.4,0.2,0.5,0.1,0.4,4c0,0.7-0.2,1.3-0.6,1.9l0,0c-0.2,0.3-0.4,0.5-0.7,0.7l-15,11.1c-0.4,0.3-1,0.1-1-0.3l0-4.9
		c0-0.7,0.5-1.1,0.5-1.1l8-5.7c1.8-1.3,1.8-4,0-5.3l-8-5.7c-0.3-0.2-0.5-0.5-0.5-1l0-5.1c0,0,0.3-0.2,0.4-0.1c0,0,0.2,0.1,0.3,0.1
		c0.2,0.1,0.5,0.2,0.5,0.2L149.1,50.3z"/>
	<path class="st0" d="M122.5,48h-10c-0.3,0-0.5-0.2-0.5-0.5l0,0c0-0.3,0.2-0.5,0.5-0.5h10c0.3,0,0.5,0.2,0.5,0.5l0,0
		C123,47.8,122.8,48,122.5,48z"/>
	<path class="st0" d="M124.5,66h-19c-0.3,0-0.5-0.2-0.5-0.5l0,0c0-0.3,0.2-0.5,0.5-0.5h19c0.3,0,0.5,0.2,0.5,0.5l0,0
		C125,65.8,124.8,66,124.5,66z"/>
</g>
</svg>
