<?xml version="1.0" encoding="utf-8"?>
<!-- Generator: Adobe Illustrator 28.2.0, SVG Export Plug-In . SVG Version: 6.00 Build 0)  -->
<svg version="1.1" id="Calque_1" xmlns="http://www.w3.org/2000/svg" xmlns:xlink="http://www.w3.org/1999/xlink" x="0px" y="0px"
	 viewBox="0 0 300 100" style="enable-background:new 0 0 300 100;" xml:space="preserve">
<style type="text/css">
	.st0{fill:none;stroke:#050505;stroke-width:4;stroke-miterlimit:10;}
	.st1{fill:#050505;}
</style>
<g>
	<path class="st0" d="M148.6,14.8h-18.4c-0.3,0-0.5-0.2-0.5-0.5v-0.8c0-0.3,0.2-0.5,0.5-0.5h18.4c0.3,0,0.5,0.2,0.5,0.5v0.8
		C149.1,14.6,148.9,14.8,148.6,14.8z"/>
	<path class="st1" d="M82.1,84.3c1.5,1.1,2.3,2.8,2.3,4.6v0.9c0,0-0.6,0.3-0.7,0.2c0,0-0.3-0.2-0.6-0.2c-0.3-0.1-0.9-0.3-0.9-0.3
		l-27.6-20C54,69,53.9,69.2,54,62.3c0-1.2,0.4-2.4,1.1-3.3l0.5-0.7l0.7-0.5v3.4c0,4.5,0.2,4.6,1.6,5.4L82.1,84.3z M59.3,64.8
		c-0.7-0.4-0.8-0.3-0.7-7.1c0-1.2,0.4-2.4,1.1-3.3v0c0.3-0.5,0.8-0.9,1.2-1.2l26.6-19.3c0.7-0.5,1.8-0.2,1.8,0.6L89.3,43
		c0,1.1-0.9,2-0.9,2l-14.2,9.9c-3.2,2.2-3.3,7-0.1,9.3l14.1,10.2c0.6,0.3,0.9,0.9,0.9,1.7v9.1c0,0-0.6,0.3-0.7,0.2
		c0,0-0.3-0.2-0.6-0.2c-0.3-0.1-0.9-0.3-0.9-0.3L59.3,64.8z"/>
	<path class="st0" d="M145.7,85.4"/>
	<path class="st0" d="M141.7,85.4"/>
	<path class="st0" d="M112.2,85.4"/>
	<line class="st0" x1="109.6" y1="85.4" x2="110.9" y2="85.4"/>
	<path class="st0" d="M106.4,85.1c0.4,0.2,1,0.4,1.5,0.4h1.7"/>
	<path class="st0" d="M97.6,15.3c-3.2-7.5,9.9,23.1,13.8,30.5c5.9,11.3,4.9,2.5,5.9-0.2c3.1-8.1,12.5-32.5,12.5-32.5l-25,67.9
		c-0.6,1.6,0.2,3.2,1.5,4"/>
	<path class="st1" d="M161.5,38.4c-1.5-1.1-2.4-2.8-2.4-4.6l0-0.9c0,0,0.6-0.3,0.7-0.2c0,0,0.3,0.2,0.6,0.2c0.3,0.1,0.9,0.3,0.9,0.3
		L189,53c0.7,0.4,0.8,0.3,0.8,7.1c0,1.2-0.4,2.4-1.1,3.3l-0.5,0.7l-0.7,0.5l0-3.4c0-4.5-0.3-4.6-1.6-5.4L161.5,38.4z M184.5,57.7
		c0.7,0.4,0.8,0.3,0.8,7.1c0,1.2-0.4,2.4-1.1,3.3v0c-0.3,0.5-0.8,0.9-1.2,1.2l-26.5,19.5c-0.7,0.5-1.8,0.2-1.8-0.6l0.1-8.6
		c0-1.1,0.9-2,0.9-2l14.2-10c3.2-2.3,3.2-7,0-9.3l-14.1-10.1c-0.6-0.3-0.9-0.9-0.9-1.7l-0.1-9.1c0,0,0.6-0.3,0.7-0.2
		c0,0,0.3,0.2,0.6,0.2c0.3,0.1,0.9,0.3,0.9,0.3L184.5,57.7z"/>
	<path class="st0" d="M138,53.6h-18.4c-0.3,0-0.5-0.2-0.5-0.5v-0.8c0-0.3,0.2-0.5,0.5-0.5H138c0.3,0,0.5,0.2,0.5,0.5v0.8
		C138.5,53.4,138.3,53.6,138,53.6z"/>
	<path class="st0" d="M141.6,85.3h-34.2c-0.3,0-0.5-0.2-0.5-0.5v-0.8c0-0.3,0.2-0.5,0.5-0.5h34.2c0.3,0,0.5,0.2,0.5,0.5v0.8
		C142.1,85.1,141.8,85.3,141.6,85.3z"/>
</g>
</svg>
