<?xml version="1.0" encoding="utf-8"?>
<!-- Generator: Adobe Illustrator 27.9.0, SVG Export Plug-In . SVG Version: 6.00 Build 0)  -->
<svg version="1.1" id="Calque_1" xmlns="http://www.w3.org/2000/svg" xmlns:xlink="http://www.w3.org/1999/xlink" x="0px" y="0px"
	 viewBox="0 0 300 100" style="enable-background:new 0 0 300 100;" xml:space="preserve">
<path d="M153.2,76.9c-3.9,3.7-7.8,5.6-11.9,5.6c-2,0-3.7-0.6-5-1.8c-1.3-1.2-2-2.8-2-4.7c0-1.1,0.3-2.1,0.8-2.9
	c0.5-0.8,1.2-1.2,2-1.2c1,0,1.5,0.6,1.5,1.8c0,0.6-0.2,1.2-0.5,1.7c-0.3,0.5-0.7,0.7-1.2,0.7c-0.8,0-1.2-0.5-1.2-1.5
	c0-0.2,0-0.4,0.1-0.6c0-0.1,0-0.2,0-0.3c0-0.1,0-0.2-0.1-0.2c-0.2,0-0.4,0.3-0.6,0.8c-0.2,0.6-0.3,1.1-0.3,1.7
	c0,1.7,0.6,3.2,1.8,4.3c1.2,1.1,2.7,1.7,4.6,1.7c2.5,0,4.9-0.9,7.1-2.6s9.1-13,12-19.7 M156.7,71.7c-1.4,2.5-2.6,4.3-3.5,5.2
	 M159.2,67c-0.9,1.7-1.7,3.3-2.5,4.7 M152.6,45c2.5-4.4,3.7-8.1,3.7-11.1c0-4.5-2.1-6.8-6.4-6.8c-4.7,0-9.5,2.8-14.2,8.3
	c-2,2.3-3.6,5-4.9,8.2c-1.3,3.1-2,5.9-2,8.3c0,2.3,0.5,4.2,1.6,5.6c1,1.4,2.4,2.1,4.2,2.1c3.1,0,6.1-1.9,9-5.7
	c3.4-4.6,5.1-8.8,5.1-12.7c0-1.4-0.3-2.5-0.9-3.3s-1.4-1.3-2.4-1.3c-2.2,0-4.5,1.7-6.9,5.2c-2.4,3.5-3.6,6.8-3.6,10c0,2,0.8,3,2.3,3
	h0.1c0.1,0,0.2,0.1,0.2,0.2c0,0.2-0.2,0.2-0.6,0.2c-0.8,0-1.5-0.4-2-1.3c-0.5-0.9-0.8-2.1-0.8-3.5c0-3.3,1.2-6.5,3.7-9.7
	c2.5-3.1,5-4.7,7.6-4.7c1.1,0,2.1,0.5,2.7,1.4c0.7,0.9,1,2.2,1,3.7c0,3.5-1.4,7.3-4.2,11.5c-3.2,4.9-6.7,7.4-10.3,7.4
	c-2,0-3.7-0.9-4.9-2.6c-1.2-1.8-1.9-4.1-1.9-7c0-5.8,2.4-11.1,7.1-16c2.3-2.4,4.9-4.3,7.6-5.7c2.7-1.4,5.2-2.1,7.4-2.1
	c2.4,0,4.3,0.9,5.6,2.6c1.4,1.7,2.1,4.1,2.1,7.1c0,2.4-0.4,4.7-1.3,7c-0.8,2.3-2.5,5.5-5,9.6c-2.1,3.6-3.5,6-4.1,7.3
	c-0.6,1.3-0.9,2.5-0.9,3.7c0,2.4,0.9,3.6,2.7,3.6c1.7,0,3.7-1.3,6-4c2.3-2.6,5.4-7.1,9.2-13.3c3.9-6.4,7.9-11.3,11.9-14.8l0.3-0.2
	c0.1-0.1,0.2-0.1,0.2-0.1c0.1,0,0.2,0.1,0.2,0.3c0,0.1-0.1,0.1-0.2,0.2c-2.6,2.4-5,5.6-7.2,9.6c-1.4,2.5-6.1,13.3-10.4,21.7
	 M147.3,54.3c0.9-1.8,2.3-4.1,4-7c0.5-0.8,0.9-1.5,1.3-2.2 M160.2,59.6c1-2.3,2.2-4.9,3.5-7.7c-3.3,5.2-5.8,8.7-7.4,10.7
	c-3,3.6-5.5,5.5-7.4,5.5c-1.2,0-2.1-0.6-2.8-1.7c-0.7-1.1-1.1-2.6-1.1-4.3c0-1.8,0.4-3.7,1.2-5.6c0.3-0.6,0.6-1.4,1.1-2.2"/>
</svg>
